<?xml version="1.0" encoding="utf-8"?>
<!-- Generator: Adobe Illustrator 27.0.0, SVG Export Plug-In . SVG Version: 6.00 Build 0)  -->
<svg version="1.1" id="Layer_1" xmlns="http://www.w3.org/2000/svg" xmlns:xlink="http://www.w3.org/1999/xlink" x="0px" y="0px"
	 viewBox="0 0 48 48" style="enable-background:new 0 0 48 48;" xml:space="preserve">
<style type="text/css">
	.st0{fill:#FFFFFF;}
</style>
<path class="st0" d="M41.2,33.2L26.7,18.6c1.3-5.7-2.3-11.3-8-12.6c-2.2-0.5-4.5-0.3-6.5,0.6l-1.5,0.7l6.1,6.1l-3.2,3.2l-6.1-6.1
	l-0.7,1.5c-2.4,5.3,0,11.5,5.3,13.9c2.1,0.9,4.4,1.1,6.6,0.7l14.6,14.6c0.9,0.9,2.3,0.9,3.2,0c0,0,0,0,0,0l4.8-4.8
	C42.1,35.5,42.1,34.1,41.2,33.2C41.2,33.2,41.2,33.2,41.2,33.2z"/>
<path d="M41.2,33.2L26.7,18.6c1.3-5.7-2.3-11.3-8-12.6c-2.2-0.5-4.5-0.3-6.5,0.6l-1.5,0.7l6.1,6.1l-3.2,3.2l-6.1-6.1l-0.7,1.5
	c-2.4,5.3,0,11.5,5.3,13.9c2.1,0.9,4.4,1.1,6.6,0.7l14.6,14.6c0.9,0.9,2.3,0.9,3.2,0c0,0,0,0,0,0l4.8-4.8
	C42.1,35.5,42.1,34.1,41.2,33.2C41.2,33.2,41.2,33.2,41.2,33.2z M34.8,39.6L19.3,24.1l-0.6,0.2c-4.4,1.3-9-1.2-10.2-5.6
	c-0.2-0.8-0.3-1.5-0.3-2.3c0-0.6,0.1-1.1,0.2-1.7l5.2,5.2l6.4-6.4l-5.2-5.2c4.5-0.9,8.8,1.9,9.8,6.4c0.3,1.3,0.2,2.7-0.2,4l-0.2,0.6
	l15.5,15.5L34.8,39.6z"/>
<circle cx="34.4" cy="34.3" r="1.5"/>
</svg>
